#N canvas -14 1208 1920 1077 12;
#N canvas 0 50 450 250 (subpatch) 0;
#X array mel1 16 float 3;
#A 0 5 7 0 -24 5 7 -2 2 5 7 0 -24 5 7 10 2;
#X coords 0 -80 16 80 200 140 1 0 0;
#X restore 12 17 graph;
#X obj 203 397 catch~ l;
#X obj 261 554 dac~;
#X obj 314 402 catch~ r;
#X obj 655 283 *~;
#X obj 680 256 vline~;
#X obj 491 155 noise~;
#X obj 520 194 *~ 0.05;
#X obj 573 239 +~;
#X obj 151 253 array set mel1;
#X floatatom 611 177 5 0 0 0 - - - 0;
#X obj 314 51 +;
#X obj 423 39 % 16;
#X obj 23 470 send tm;
#X obj 283 12 receive tm;
#X floatatom 351 66 5 0 0 0 - - - 0;
#X obj 556 131 expr pow(2 \, $f1/12)*440;
#X obj 732 196 spigot;
#X obj 758 50 tabread mel1;
#X msg 361 32 1;
#X obj 377 7 loadbang;
#X obj 26 397 loadbang;
#X obj 606 202 osc~ 440;
#X obj 177 431 clip~ -0.99 0.99;
#X obj 319 431 clip~ -0.99 0.99;
#X obj 858 183 != -24;
#X obj 738 164 trigger f f;
#X msg 158 196 5 7 0 -24 5 7 -2 2 5 7 0 -24 5 7 10 2;
#X obj 23 446 metro 1 180 permin;
#X msg 687 222 25 50 0 \, 0 300 1;
#X obj 600 547 phasor~ 440;
#X obj 693 544 phasor~ 440;
#X obj 614 461 expr pow(2 \, $f1/12)*440;
#X obj 662 677 throw~ m;
#X obj 336 468 catch~ m;
#X obj 325 499 clip~ -0.99 0.99;
#X obj 648 499 + 0.5;
#X msg 630 415 -28;
#X msg 695 408 -29;
#X obj 641 593 *~ 0.1;
#X text 252 351 output;
#X text 335 98 sequencer index;
#X text 519 287 melody osc;
#X text 521 456 bass osc;
#X obj 651 634 bp~ 500 0.5;
#X obj 813 564 snapshot~;
#X obj 837 483 osc~ 0.125;
#X obj 899 533 metro 25;
#X obj 826 522 +~ 1.15;
#X obj 925 484 loadbang;
#X text 60 -1 comment;
#X obj 802 392 throw~ r;
#X obj 651 361 throw~ l;
#X obj 747 281 delwrite~ mel1del 500;
#X obj 781 321 delread~ mel1del 500;
#X obj 801 354 *~ 0.4;
#X msg 574 422 -36;
#X obj 428 563 notein;
#X obj 505 597 spigot;
#X obj 532 552 == 1;
#X text 824 457 bass lfo;
#X obj 515 631 * -0.01;
#X obj 533 658 + 1;
#X obj 436 641 spigot;
#X obj 463 614 == 2;
#X obj 453 702 sel 1;
#X obj 442 672 >= 85;
#X obj 387 699 sel 1, f 6;
#X obj 234 703 sel 1;
#X obj 378 621 print;
#X obj 94 677 expr 65 <= $f1 && $f1 < 75;
#X obj 208 649 expr 75 <= $f1 && $f1< 85;
#X obj 449 229 phasor~ 440;
#X obj 466 260 *~ 0.01;
#X obj 539 697 send phsvel;
#X obj 347 249 receive phsvel;
#X obj 504 677 * 0.005;
#X connect 1 0 23 0;
#X connect 3 0 24 0;
#X connect 4 0 52 0;
#X connect 4 0 53 0;
#X connect 5 0 4 1;
#X connect 6 0 7 0;
#X connect 7 0 8 0;
#X connect 8 0 4 0;
#X connect 10 0 22 0;
#X connect 10 0 72 0;
#X connect 11 0 15 0;
#X connect 12 0 18 0;
#X connect 14 0 11 0;
#X connect 14 0 27 0;
#X connect 15 0 11 1;
#X connect 15 0 12 0;
#X connect 16 0 10 0;
#X connect 17 0 29 0;
#X connect 18 0 16 0;
#X connect 18 0 26 0;
#X connect 19 0 11 0;
#X connect 20 0 19 0;
#X connect 21 0 28 0;
#X connect 22 0 8 1;
#X connect 23 0 2 0;
#X connect 24 0 2 1;
#X connect 25 0 17 1;
#X connect 26 0 17 0;
#X connect 26 1 25 0;
#X connect 27 0 9 0;
#X connect 28 0 13 0;
#X connect 29 0 5 0;
#X connect 30 0 39 0;
#X connect 31 0 39 0;
#X connect 32 0 30 0;
#X connect 32 0 36 0;
#X connect 34 0 35 0;
#X connect 35 0 2 0;
#X connect 35 0 2 1;
#X connect 36 0 31 0;
#X connect 37 0 32 0;
#X connect 38 0 32 0;
#X connect 39 0 44 0;
#X connect 44 0 33 0;
#X connect 46 0 48 0;
#X connect 47 0 45 0;
#X connect 48 0 45 0;
#X connect 49 0 47 0;
#X connect 54 0 55 0;
#X connect 55 0 51 0;
#X connect 56 0 32 0;
#X connect 57 1 58 0;
#X connect 57 1 63 0;
#X connect 57 2 59 0;
#X connect 57 2 64 0;
#X connect 58 0 61 0;
#X connect 58 0 76 0;
#X connect 59 0 58 1;
#X connect 61 0 62 0;
#X connect 62 0 44 2;
#X connect 63 0 66 0;
#X connect 63 0 69 0;
#X connect 63 0 70 0;
#X connect 63 0 71 0;
#X connect 64 0 63 1;
#X connect 65 0 38 0;
#X connect 66 0 65 0;
#X connect 67 0 37 0;
#X connect 68 0 56 0;
#X connect 70 0 68 0;
#X connect 71 0 67 0;
#X connect 72 0 73 0;
#X connect 73 0 8 1;
#X connect 75 0 73 1;
#X connect 76 0 74 0;
#X coords 0 0 0.5 0.5 0 0 0;
