#N canvas 4 0 1920 1077 12;
#X obj 134 375 abs~;
#X obj 141 348 -~ 0.5;
#X obj 153 400 -~ 0.25;
#X obj 148 89 catch~ l;
#X obj 274 86 catch~ r;
#X obj 22 89 catch~ m;
#X obj 183 187 dac~;
#X obj 18 146 clip~ -0.99 0.99;
#X obj 134 126 clip~ -0.99 0.99;
#X obj 251 150 clip~ -0.99 0.99;
#X obj 248 356 abs~;
#X obj 255 329 -~ 0.5;
#X obj 267 381 -~ 0.25;
#X obj 263 403 *~ 0.5;
#X text 151 55 sound outputs;
#X obj 873 620 mtof;
#X obj 916 621 mtof;
#X obj 961 620 mtof;
#X obj 1004 619 mtof;
#X text 791 237 chord machine;
#X obj 905 590 unpack f f f f;
#X obj 928 661 send chrd1;
#X obj 133 271 r chrd1;
#X obj 244 270 r chrd2;
#X obj 142 317 phasor~;
#X obj 256 298 phasor~;
#X obj 1046 685 send chrd2;
#X obj 457 30 catch~ rvb-l;
#X obj 638 51 catch~ rvb-r;
#X obj 462 152 throw~ l;
#X obj 637 160 throw~ r;
#X obj 1138 689 send chrd3;
#X obj 1225 688 send chrd4;
#X obj 87 622 abs~;
#X obj 94 595 -~ 0.5;
#X obj 106 647 -~ 0.25;
#X obj 100 677 *~ 0.5;
#X obj 202 618 abs~;
#X obj 209 591 -~ 0.5;
#X obj 221 643 -~ 0.25;
#X obj 95 564 phasor~;
#X obj 208 708 throw~ rvb-r;
#X obj 96 523 r chrd3;
#X obj 207 498 r chrd4;
#X msg 766 350 43 50 52 62;
#X obj 254 446 throw~ rvb-m;
#X obj 95 708 throw~ rvb-m;
#X obj 785 61 catch~ rvb-m;
#X obj 812 108 throw~ rvb-r;
#X obj 790 150 throw~ rvb-l;
#X obj 210 560 phasor~;
#X obj 211 532 *~;
#X obj 555 680 *~;
#X obj 544 640 osc~;
#X msg 764 376 40 42 52 57;
#X msg 768 400 43 50 47 59;
#X msg 771 423 40 47 54 59;
#X text 603 22 reverbs;
#X obj 982 50 loadbang;
#X obj 1002 136 +;
#X floatatom 1054 134 5 0 0 0 - - - 0;
#X msg 1059 96 1;
#X obj 1037 180 % 4;
#X text 965 15 gbl metronome;
#X obj 780 320 sel 0;
#X obj 825 320 sel 1;
#X obj 881 319 sel 2;
#X obj 938 322 sel 3;
#X obj 1209 656 pipe;
#X obj 1123 661 pipe;
#X obj 1042 659 pipe;
#X obj 1049 569 bng 19 250 50 0 empty empty empty 0 -10 0 12 #fcfcfc #000000 #000000;
#X obj 1061 606 random 400 1;
#X obj 1158 607 random 400 1;
#X obj 1256 607 random 400 1;
#X obj 44 284 osc~ 1;
#X obj 144 464 throw~ rvb-l;
#X text 28 931 MIDI I/O;
#X text 23 959 channel 1 - h1 x;
#X text 25 1114 channel 4 - h2 y;
#X text 23 1006 channel 2 - h1 y;
#X obj 433 918 notein;
#X obj 259 1001 spigot;
#X floatatom 161 1011 5 0 0 0 - - - 0;
#X obj 312 999 == 2;
#X floatatom 161 962 5 0 0 0 - - - 0;
#X floatatom 161 1063 5 0 0 0 - - - 0;
#X floatatom 162 1117 5 0 0 0 - - - 0;
#X obj 261 1059 spigot;
#X obj 262 1114 spigot;
#X obj 264 952 spigot;
#X obj 317 950 == 1;
#X obj 314 1057 == 3;
#X obj 315 1112 == 4;
#X obj 162 985 send mi1;
#X obj 164 1040 send mi2;
#X obj 162 1089 send mi3;
#X obj 163 1143 send mi4;
#X obj 585 138 *~ 0.1;
#X obj 395 138 *~ 0.1;
#X text 23 1059 channel 3 - h2 x;
#X obj 468 1043 spigot;
#X obj 521 1041 != 0;
#X text 560 1039 filter null values;
#X obj 20 494 line;
#X obj 9 398 r mi2;
#X obj 1 458 pack f 200;
#X obj 298 596 line;
#X obj 286 559 pack f 200;
#X obj 276 502 r mi4;
#X obj 147 430 *~;
#X obj 20 518 + 0.1;
#X obj 304 634 + 0.1;
#X obj 217 665 *~;
#X obj 278 533 / 100;
#X obj 11 429 / 100;
#X obj 137 293 +~;
#X obj 42 226 r mi1;
#X obj 57 324 *~;
#X obj 9 253 expr (3*$f1/-127)+3;
#X obj 374 338 phasor~;
#X text 104 221 quad triangle osc;
#X obj 371 376 *~;
#X obj 366 415 throw~ rvb-m;
#X obj 430 68 *~ 0.5;
#X obj 622 86 *~ 0.5;
#X obj 408 361 * 0.05;
#X obj 371 286 r chrd3;
#X obj 372 316 / 2;
#X floatatom 176 1176 5 0 0 0 - - - 0;
#X obj 262 1170 spigot;
#X floatatom 168 1227 5 0 0 0 - - - 0;
#X obj 268 1224 spigot;
#X text 11 1221 channel 6 - h2 pinch;
#X text 19 1168 channel 5 - h1 pinch;
#X obj 177 1202 send mi5;
#X obj 167 1251 send mi6;
#X obj 329 1171 == 5;
#X obj 324 1223 == 6;
#X obj 462 577 r chrd4;
#X obj 462 624 *~;
#X obj 433 735 throw~ rvb-m;
#X obj 542 616 / 16;
#X obj 442 664 phasor~;
#X obj 605 543 r mi5;
#X obj 614 662 spigot;
#X obj 638 633 > 0;
#X obj 510 390 abs~;
#X obj 517 363 -~ 0.5;
#X obj 529 415 -~ 0.25;
#X obj 508 275 r chrd2;
#X obj 518 332 phasor~;
#X obj 516 480 throw~ rvb-m;
#X text 471 237 FM oscs;
#X obj 613 342 *~;
#X obj 602 302 osc~;
#X obj 527 302 *~;
#X obj 600 278 / 4;
#X obj 526 437 *~ 0.5;
#X obj 627 380 r mi3;
#X obj 624 434 / 63;
#X floatatom 617 730 5 0 0 0 - - - 0;
#X obj 456 703 *~ 0.04;
#N canvas 0 50 450 250 (subpatch) 0;
#X array channel 712809 float 2;
#X coords 0 1 712809 -1 200 140 1;
#X restore 1720 46 graph;
#X obj 1380 147 soundfiler;
#X obj 1384 75 bng 19 250 50 0 empty empty empty 0 -10 0 12 #fcfcfc #000000 #000000;
#X obj 1775 666 tabread4~ channel;
#X floatatom 1441 188 7 0 0 0 - - - 0;
#X obj 1724 510 expr 44100 / $f1;
#X obj 1717 550 phasor~;
#X obj 1751 582 *~;
#X text 1355 187 num samples;
#X obj 1816 371 random;
#X obj 1567 262 / 100;
#X obj 1408 226 s size;
#X obj 1835 313 r size;
#X obj 1564 296 *;
#X obj 1617 281 r size;
#X floatatom 1568 328 9 0 0 0 - - - 0;
#X obj 1574 364 s grainSize;
#X obj 1894 323 r grainSize;
#X obj 1837 342 -;
#X floatatom 1803 398 24 0 0 0 - - - 0;
#X obj 2009 263 r grainSize;
#X floatatom 1977 340 5 0 0 0 - - - 0;
#X obj 1818 272 metro 1 1 sec;
#X obj 1988 300 expr $f1 / 44100;
#X text 1706 395 start index;
#X text 2023 337 grainsize (s);
#X text 1639 324 grainsize (samples);
#X obj 1863 233 loadbang;
#X obj 1789 558 r grainSize;
#X obj 1699 481 r grainSize;
#X obj 1778 613 +~;
#X obj 2208 621 tabread4~ channel;
#X obj 2157 465 expr 44100 / $f1;
#X obj 2150 505 phasor~;
#X obj 2162 541 *~;
#X obj 2241 354 random;
#X obj 2260 296 r size;
#X obj 2319 306 r grainSize;
#X obj 2262 325 -;
#X floatatom 2228 381 14 0 0 0 - - - 0;
#X obj 2222 513 r grainSize;
#X obj 2132 436 r grainSize;
#X obj 2211 568 +~;
#X obj 1811 426 s inx1;
#X obj 1813 596 r inx1;
#X obj 2236 409 s inx2;
#X obj 2245 544 r inx2;
#X obj 2083 798 throw~ r;
#X obj 1973 641 vline~;
#X obj 1730 296 send metro;
#X obj 1888 520 receive metro;
#X obj 1972 552 del;
#X obj 1819 703 *~;
#X obj 1788 793 throw~ l;
#X obj 2183 311 r metro;
#X obj 2221 652 *~;
#X text 1898 489 declicking envelope;
#X text 2235 249 right channel;
#X obj 1452 63 loadbang;
#X text 1614 222 grain % (ADJUST THIS);
#X msg 1906 584 1 10 0;
#X msg 1972 584 0 10 0;
#X text 1473 93 filename;
#X obj 1999 517 expr $f1*1000-20;
#X obj 1791 727 bp~ 400 3;
#X obj 2209 673 bp~ 400 3;
#X text 1620 -9 granulator;
#X floatatom 167 1288 5 0 0 0 - - - 0;
#X obj 267 1285 spigot;
#X text 10 1282 channel 7 - velocity;
#X obj 166 1312 send mi7;
#X obj 320 1283 == 7;
#X obj 1987 743 r mi7;
#X obj 1774 755 *~;
#X obj 2155 745 *~;
#X msg 1555 219 6;
#X obj 1984 778 / 40;
#N canvas 0 50 450 250 (subpatch) 0;
#X array channel1 164739 float 2;
#X coords 0 1 164739 -1 200 140 1 0 0;
#X restore 2784 45 graph;
#X obj 2444 146 soundfiler;
#X floatatom 2505 187 7 0 0 0 - - - 0;
#X obj 2456 568 expr 44100 / $f1;
#X obj 2449 608 phasor~;
#X obj 2483 640 *~;
#X text 2419 186 num samples;
#X obj 2686 440 random;
#X floatatom 2434 297 5 1 99 0 - - - 0;
#X obj 2437 331 / 100;
#X obj 2434 365 *;
#X floatatom 2438 397 9 0 0 0 - - - 0;
#X obj 2707 411 -;
#X floatatom 2673 467 14 0 0 0 - - - 0;
#X floatatom 2847 409 5 0 0 0 - - - 0;
#X obj 2688 341 metro 1 1 sec;
#X obj 2858 369 expr $f1 / 44100;
#X text 2576 464 start index;
#X text 2893 406 grainsize (s);
#X text 2509 393 grainsize (samples);
#X obj 2733 302 loadbang;
#X obj 2510 671 +~;
#X obj 2705 699 vline~;
#X obj 2704 610 del;
#X obj 2551 764 *~;
#X text 2630 547 declicking envelope;
#X obj 2516 62 loadbang;
#X text 2484 291 grain % (ADJUST THIS);
#X msg 2638 642 1 10 0;
#X msg 2704 642 0 10 0;
#X text 2537 92 filename;
#X obj 2731 575 expr $f1*1000-20;
#X obj 2472 225 s size2;
#X obj 2444 433 s grainSize2;
#X obj 2487 350 r size2;
#X obj 2600 365 send metro2;
#X obj 2681 495 s inx3;
#X msg 2444 115 read -resize piano.wav channel1;
#X obj 2545 654 r inx3;
#X obj 2431 539 r grainSize2;
#X obj 2621 577 receive metro2;
#X obj 2879 332 r grainSize2;
#X obj 2521 616 r grainSize2;
#X obj 2507 724 tabread4~ channel1;
#X obj 2545 869 throw~ m;
#X obj 2705 382 r size2;
#X obj 2764 392 r grainSize2;
#X floatatom 179 1357 5 0 0 0 - - - 0;
#X obj 279 1354 spigot;
#X obj 332 1352 == 8;
#X msg 1380 116 read -resize foil3.wav channel;
#X obj 2566 800 *~;
#X obj 2458 754 r mi8;
#X obj 178 1381 send mi8;
#X floatatom 2470 829 5 0 0 0 - - - 0;
#X msg 1162 85 0;
#X obj 1180 121 sel 1;
#X obj 1176 157 == 768;
#X text 1168 56 reset system;
#X obj 1040 206 +;
#X floatatom 1023 256 5 0 0 0 - - - 0;
#X obj 1113 197 > 256;
#X obj 1115 224 * 4;
#X obj 1033 231 +;
#X obj 1170 224 * 4;
#X obj 1168 197 > 512;
#X obj 1020 325 sel 4;
#X obj 1079 321 sel 5;
#X obj 1135 320 sel 6;
#X obj 1187 319 sel 7;
#X obj 936 97 metro 8000;
#X obj 1251 324 sel 8;
#X obj 1305 323 sel 9;
#X obj 1361 322 sel 10;
#X obj 1417 319 sel 11;
#X msg 1020 351 43 62 66 57;
#X msg 1020 377 40 61 64 52;
#X msg 1022 426 40 61 73 66;
#X obj 630 114 rev2~ 85 95 3000 20;
#X obj 455 109 rev2~ 85 95 3000 20;
#X msg 1022 401 49 61 66 57;
#X msg 1241 355 50 52 55 59;
#X msg 1244 379 48 52 55 59;
#X msg 1248 403 47 52 55 59;
#X msg 1251 426 45 52 55 59;
#X text 804 289 phase1;
#X text 1010 300 phase2;
#X text 1276 276 phase3;
#X msg 2188 106 read -resize dulcimer.wav channel1;
#X obj 2558 832 bp~ 400 0.2;
#X text 22 1351 channel 8 - hand dist;
#X msg 2620 801 2;
#X msg 2669 808 0.2;
#X obj 712 334 s phase1;
#X obj 919 373 s phase2;
#X obj 2618 761 r phase1;
#X obj 2685 770 r phase2;
#X obj 2173 61 r phase2;
#X obj 2386 51 r phase1;
#X obj 2455 789 / 160;
#X text 3 2 Interconnected (March 2025) patch by Shaan Sawrup/Opals;
#X text 5 27 README: set midi input to loopmidi.;
#X obj 602 595 expr -$f1/250+.2;
#X connect 0 0 2 0;
#X connect 1 0 0 0;
#X connect 2 0 110 0;
#X connect 3 0 8 0;
#X connect 4 0 9 0;
#X connect 5 0 7 0;
#X connect 7 0 6 0;
#X connect 7 0 6 1;
#X connect 8 0 6 0;
#X connect 9 0 6 1;
#X connect 10 0 12 0;
#X connect 11 0 10 0;
#X connect 12 0 13 0;
#X connect 13 0 45 0;
#X connect 15 0 21 0;
#X connect 16 0 70 0;
#X connect 17 0 69 0;
#X connect 18 0 68 0;
#X connect 20 0 15 0;
#X connect 20 1 16 0;
#X connect 20 2 17 0;
#X connect 20 3 18 0;
#X connect 22 0 116 0;
#X connect 23 0 25 0;
#X connect 24 0 1 0;
#X connect 25 0 11 0;
#X connect 27 0 124 0;
#X connect 28 0 125 0;
#X connect 33 0 35 0;
#X connect 34 0 33 0;
#X connect 35 0 36 0;
#X connect 36 0 46 0;
#X connect 37 0 39 0;
#X connect 38 0 37 0;
#X connect 39 0 113 0;
#X connect 40 0 34 0;
#X connect 42 0 40 0;
#X connect 43 0 51 0;
#X connect 44 0 20 0;
#X connect 47 0 48 0;
#X connect 47 0 49 0;
#X connect 50 0 38 0;
#X connect 51 0 50 0;
#X connect 52 0 140 1;
#X connect 53 0 52 0;
#X connect 54 0 20 0;
#X connect 55 0 20 0;
#X connect 56 0 20 0;
#X connect 58 0 61 0;
#X connect 58 0 310 0;
#X connect 59 0 60 0;
#X connect 60 0 59 1;
#X connect 60 0 62 0;
#X connect 60 0 297 0;
#X connect 60 0 301 0;
#X connect 60 0 305 0;
#X connect 61 0 59 0;
#X connect 62 0 299 0;
#X connect 64 0 44 0;
#X connect 64 0 333 0;
#X connect 65 0 54 0;
#X connect 66 0 55 0;
#X connect 67 0 56 0;
#X connect 68 0 32 0;
#X connect 69 0 31 0;
#X connect 70 0 26 0;
#X connect 71 0 72 0;
#X connect 71 0 73 0;
#X connect 71 0 74 0;
#X connect 72 0 70 1;
#X connect 73 0 69 1;
#X connect 74 0 68 1;
#X connect 75 0 118 0;
#X connect 81 1 101 0;
#X connect 81 1 102 0;
#X connect 81 1 289 0;
#X connect 81 2 84 0;
#X connect 81 2 91 0;
#X connect 81 2 92 0;
#X connect 81 2 93 0;
#X connect 81 2 137 0;
#X connect 81 2 138 0;
#X connect 81 2 234 0;
#X connect 82 0 83 0;
#X connect 83 0 95 0;
#X connect 84 0 82 1;
#X connect 85 0 94 0;
#X connect 86 0 96 0;
#X connect 87 0 97 0;
#X connect 88 0 86 0;
#X connect 89 0 87 0;
#X connect 90 0 85 0;
#X connect 91 0 90 1;
#X connect 92 0 88 1;
#X connect 93 0 89 1;
#X connect 98 0 30 0;
#X connect 99 0 29 0;
#X connect 101 0 90 0;
#X connect 101 0 82 0;
#X connect 101 0 88 0;
#X connect 101 0 89 0;
#X connect 101 0 130 0;
#X connect 101 0 132 0;
#X connect 101 0 231 0;
#X connect 101 0 288 0;
#X connect 102 0 101 1;
#X connect 104 0 111 0;
#X connect 105 0 115 0;
#X connect 106 0 104 0;
#X connect 107 0 112 0;
#X connect 108 0 107 0;
#X connect 109 0 114 0;
#X connect 110 0 76 0;
#X connect 111 0 110 1;
#X connect 111 0 36 1;
#X connect 112 0 113 1;
#X connect 112 0 13 1;
#X connect 112 0 126 0;
#X connect 113 0 41 0;
#X connect 114 0 108 0;
#X connect 115 0 106 0;
#X connect 116 0 24 0;
#X connect 117 0 119 0;
#X connect 118 0 116 1;
#X connect 119 0 118 1;
#X connect 119 0 75 0;
#X connect 120 0 122 0;
#X connect 122 0 123 0;
#X connect 124 0 99 0;
#X connect 124 0 319 0;
#X connect 125 0 98 0;
#X connect 125 0 318 0;
#X connect 126 0 122 1;
#X connect 127 0 128 0;
#X connect 128 0 120 0;
#X connect 129 0 135 0;
#X connect 130 0 129 0;
#X connect 131 0 136 0;
#X connect 132 0 131 0;
#X connect 137 0 130 1;
#X connect 138 0 132 1;
#X connect 139 0 140 0;
#X connect 139 0 142 0;
#X connect 140 0 143 0;
#X connect 142 0 53 0;
#X connect 143 0 162 0;
#X connect 144 0 342 0;
#X connect 145 0 52 1;
#X connect 146 0 145 1;
#X connect 147 0 149 0;
#X connect 148 0 147 0;
#X connect 149 0 158 0;
#X connect 150 0 156 0;
#X connect 150 0 157 0;
#X connect 151 0 148 0;
#X connect 154 0 156 1;
#X connect 155 0 154 0;
#X connect 156 0 151 0;
#X connect 157 0 155 0;
#X connect 158 0 152 0;
#X connect 159 0 160 0;
#X connect 160 0 154 1;
#X connect 162 0 141 0;
#X connect 164 0 167 0;
#X connect 165 0 290 0;
#X connect 166 0 215 0;
#X connect 167 0 174 0;
#X connect 168 0 169 0;
#X connect 169 0 170 0;
#X connect 170 0 193 0;
#X connect 172 0 182 0;
#X connect 173 0 176 0;
#X connect 175 0 181 0;
#X connect 176 0 178 0;
#X connect 177 0 176 1;
#X connect 178 0 179 0;
#X connect 180 0 181 1;
#X connect 181 0 172 1;
#X connect 182 0 206 0;
#X connect 183 0 186 0;
#X connect 184 0 226 0;
#X connect 185 0 172 0;
#X connect 185 0 212 0;
#X connect 186 0 184 0;
#X connect 186 0 185 1;
#X connect 190 0 185 0;
#X connect 191 0 170 1;
#X connect 192 0 168 0;
#X connect 193 0 166 0;
#X connect 194 0 218 0;
#X connect 195 0 196 0;
#X connect 196 0 197 0;
#X connect 197 0 205 0;
#X connect 198 0 202 0;
#X connect 199 0 201 0;
#X connect 200 0 201 1;
#X connect 201 0 198 1;
#X connect 202 0 208 0;
#X connect 203 0 197 1;
#X connect 204 0 195 0;
#X connect 205 0 194 0;
#X connect 207 0 193 1;
#X connect 209 0 205 1;
#X connect 211 0 215 1;
#X connect 211 0 218 1;
#X connect 213 0 214 0;
#X connect 213 0 223 0;
#X connect 214 0 224 0;
#X connect 215 0 227 0;
#X connect 217 0 198 0;
#X connect 218 0 228 0;
#X connect 221 0 290 0;
#X connect 221 0 238 0;
#X connect 223 0 211 0;
#X connect 224 0 211 0;
#X connect 226 0 214 1;
#X connect 227 0 236 0;
#X connect 228 0 237 0;
#X connect 230 0 233 0;
#X connect 231 0 230 0;
#X connect 234 0 231 1;
#X connect 235 0 239 0;
#X connect 236 0 216 0;
#X connect 237 0 210 0;
#X connect 238 0 173 0;
#X connect 239 0 236 1;
#X connect 239 0 237 1;
#X connect 241 0 242 0;
#X connect 242 0 272 0;
#X connect 243 0 244 0;
#X connect 244 0 245 0;
#X connect 245 0 261 0;
#X connect 247 0 253 0;
#X connect 248 0 249 0;
#X connect 249 0 250 0;
#X connect 250 0 251 0;
#X connect 251 0 273 0;
#X connect 252 0 247 1;
#X connect 253 0 276 0;
#X connect 254 0 271 0;
#X connect 255 0 247 0;
#X connect 255 0 275 0;
#X connect 256 0 254 0;
#X connect 256 0 255 1;
#X connect 260 0 255 0;
#X connect 261 0 283 0;
#X connect 262 0 264 1;
#X connect 263 0 269 0;
#X connect 264 0 291 0;
#X connect 266 0 277 0;
#X connect 268 0 262 0;
#X connect 269 0 262 0;
#X connect 271 0 263 1;
#X connect 274 0 250 1;
#X connect 277 0 241 0;
#X connect 278 0 261 1;
#X connect 279 0 243 0;
#X connect 280 0 263 0;
#X connect 280 0 268 0;
#X connect 281 0 256 0;
#X connect 282 0 245 1;
#X connect 283 0 264 0;
#X connect 285 0 252 0;
#X connect 286 0 252 1;
#X connect 287 0 293 0;
#X connect 288 0 287 0;
#X connect 289 0 288 1;
#X connect 290 0 164 0;
#X connect 291 0 329 0;
#X connect 292 0 339 0;
#X connect 295 0 60 0;
#X connect 296 0 295 0;
#X connect 297 0 296 0;
#X connect 299 0 303 0;
#X connect 300 0 64 0;
#X connect 300 0 65 0;
#X connect 300 0 66 0;
#X connect 300 0 67 0;
#X connect 300 0 306 0;
#X connect 300 0 307 0;
#X connect 300 0 308 0;
#X connect 300 0 309 0;
#X connect 300 0 311 0;
#X connect 300 0 312 0;
#X connect 300 0 313 0;
#X connect 300 0 314 0;
#X connect 301 0 302 0;
#X connect 302 0 299 1;
#X connect 303 0 300 0;
#X connect 304 0 303 1;
#X connect 305 0 304 0;
#X connect 306 0 315 0;
#X connect 306 0 20 0;
#X connect 306 0 334 0;
#X connect 307 0 316 0;
#X connect 308 0 320 0;
#X connect 309 0 317 0;
#X connect 310 0 59 0;
#X connect 310 0 71 0;
#X connect 311 0 321 0;
#X connect 312 0 322 0;
#X connect 313 0 323 0;
#X connect 314 0 324 0;
#X connect 316 0 20 0;
#X connect 317 0 20 0;
#X connect 318 0 30 0;
#X connect 319 0 29 0;
#X connect 320 0 20 0;
#X connect 321 0 20 0;
#X connect 322 0 20 0;
#X connect 323 0 20 0;
#X connect 324 0 20 0;
#X connect 328 0 241 0;
#X connect 329 0 284 0;
#X connect 331 0 329 2;
#X connect 332 0 329 2;
#X connect 335 0 331 0;
#X connect 336 0 332 0;
#X connect 337 0 328 0;
#X connect 338 0 277 0;
#X connect 339 0 291 1;
#X connect 339 0 294 0;
#X connect 342 0 146 0;
#X connect 342 0 145 0;
#X connect 342 0 161 0;
